<svg xmlns="http://www.w3.org/2000/svg" viewBox="0 0 100 100" fill="none" role="img" aria-label="Mnesis icon">
  <line x1="8" y1="14" x2="92" y2="14" stroke="#e8e4dd" stroke-width="3" stroke-linecap="round"/>
  <line x1="8" y1="25" x2="50" y2="25" stroke="#60a5fa" stroke-width="2.8" stroke-linecap="round"/>
  <line x1="58" y1="25" x2="92" y2="25" stroke="#60a5fa" stroke-width="2.8" stroke-linecap="round"/>
  <line x1="8" y1="36" x2="34" y2="36" stroke="#a78bfa" stroke-width="2.5" stroke-linecap="round"/>
  <line x1="42" y1="36" x2="64" y2="36" stroke="#a78bfa" stroke-width="2.5" stroke-linecap="round"/>
  <line x1="72" y1="36" x2="92" y2="36" stroke="#a78bfa" stroke-width="2.5" stroke-linecap="round"/>
  <line x1="8" y1="47" x2="24" y2="47" stroke="#3ecf8e" stroke-width="2.2" stroke-linecap="round"/>
  <line x1="32" y1="47" x2="48" y2="47" stroke="#3ecf8e" stroke-width="2.2" stroke-linecap="round"/>
  <line x1="56" y1="47" x2="70" y2="47" stroke="#3ecf8e" stroke-width="2.2" stroke-linecap="round"/>
  <line x1="78" y1="47" x2="92" y2="47" stroke="#3ecf8e" stroke-width="2.2" stroke-linecap="round"/>
  <line x1="8" y1="58" x2="19" y2="58" stroke="#22d3ee" stroke-width="2" stroke-linecap="round"/>
  <line x1="27" y1="58" x2="37" y2="58" stroke="#22d3ee" stroke-width="2" stroke-linecap="round"/>
  <line x1="45" y1="58" x2="55" y2="58" stroke="#22d3ee" stroke-width="2" stroke-linecap="round"/>
  <line x1="62" y1="58" x2="72" y2="58" stroke="#22d3ee" stroke-width="2" stroke-linecap="round"/>
  <line x1="79" y1="58" x2="89" y2="58" stroke="#22d3ee" stroke-width="2" stroke-linecap="round"/>
  <line x1="8" y1="69" x2="15" y2="69" stroke="#fb923c" stroke-width="1.7" stroke-linecap="round"/>
  <line x1="23" y1="69" x2="30" y2="69" stroke="#fb923c" stroke-width="1.7" stroke-linecap="round"/>
  <line x1="38" y1="69" x2="44" y2="69" stroke="#fb923c" stroke-width="1.7" stroke-linecap="round"/>
  <line x1="52" y1="69" x2="58" y2="69" stroke="#fb923c" stroke-width="1.7" stroke-linecap="round"/>
  <line x1="66" y1="69" x2="72" y2="69" stroke="#fb923c" stroke-width="1.7" stroke-linecap="round"/>
  <line x1="79" y1="69" x2="85" y2="69" stroke="#fb923c" stroke-width="1.7" stroke-linecap="round"/>
  <line x1="12" y1="80" x2="16" y2="80" stroke="#fbbf24" stroke-width="1.4" stroke-linecap="round"/>
  <line x1="26" y1="80" x2="30" y2="80" stroke="#fbbf24" stroke-width="1.4" stroke-linecap="round"/>
  <line x1="40" y1="80" x2="44" y2="80" stroke="#fbbf24" stroke-width="1.4" stroke-linecap="round"/>
  <line x1="54" y1="80" x2="58" y2="80" stroke="#fbbf24" stroke-width="1.4" stroke-linecap="round"/>
  <line x1="68" y1="80" x2="72" y2="80" stroke="#fbbf24" stroke-width="1.4" stroke-linecap="round"/>
  <line x1="82" y1="80" x2="86" y2="80" stroke="#fbbf24" stroke-width="1.4" stroke-linecap="round"/>
  <line x1="15" y1="91" x2="18" y2="91" stroke="#f87171" stroke-width="1.3" stroke-linecap="round"/>
  <line x1="34" y1="91" x2="37" y2="91" stroke="#f87171" stroke-width="1.3" stroke-linecap="round"/>
  <line x1="55" y1="91" x2="58" y2="91" stroke="#f87171" stroke-width="1.3" stroke-linecap="round"/>
  <line x1="76" y1="91" x2="79" y2="91" stroke="#f87171" stroke-width="1.3" stroke-linecap="round"/>
</svg>
