<svg width="920" height="220" viewBox="0 0 920 220" fill="none" xmlns="http://www.w3.org/2000/svg" role="img" aria-label="Mnesis woodmark">
  <rect x="1" y="1" width="918" height="218" rx="24" fill="#050505" stroke="#1B1B1B"/>
  <g transform="translate(64 50)">
    <line x1="10" y1="16" x2="90" y2="16" stroke="#F5F3EE" stroke-width="2.8" stroke-linecap="round"/>
    <line x1="10" y1="27" x2="54" y2="27" stroke="#F5F3EE" stroke-width="2.8" stroke-linecap="round"/>
    <line x1="60" y1="27" x2="90" y2="27" stroke="#F5F3EE" stroke-width="2.8" stroke-linecap="round"/>
    <line x1="10" y1="38" x2="38" y2="38" stroke="#F5F3EE" stroke-width="2.5" stroke-linecap="round"/>
    <line x1="44" y1="38" x2="68" y2="38" stroke="#F5F3EE" stroke-width="2.5" stroke-linecap="round"/>
    <line x1="74" y1="38" x2="90" y2="38" stroke="#F5F3EE" stroke-width="2.5" stroke-linecap="round"/>
    <line x1="10" y1="49" x2="28" y2="49" stroke="#F5F3EE" stroke-width="2.2" stroke-linecap="round"/>
    <line x1="35" y1="49" x2="52" y2="49" stroke="#F5F3EE" stroke-width="2.2" stroke-linecap="round"/>
    <line x1="59" y1="49" x2="73" y2="49" stroke="#F5F3EE" stroke-width="2.2" stroke-linecap="round"/>
    <line x1="79" y1="49" x2="90" y2="49" stroke="#F5F3EE" stroke-width="2.2" stroke-linecap="round"/>
    <line x1="10" y1="60" x2="22" y2="60" stroke="#F5F3EE" stroke-width="2.0" stroke-linecap="round"/>
    <line x1="29" y1="60" x2="40" y2="60" stroke="#F5F3EE" stroke-width="2.0" stroke-linecap="round"/>
    <line x1="47" y1="60" x2="57" y2="60" stroke="#F5F3EE" stroke-width="2.0" stroke-linecap="round"/>
    <line x1="63" y1="60" x2="72" y2="60" stroke="#F5F3EE" stroke-width="2.0" stroke-linecap="round"/>
    <line x1="78" y1="60" x2="87" y2="60" stroke="#F5F3EE" stroke-width="2.0" stroke-linecap="round"/>
    <line x1="10" y1="71" x2="18" y2="71" stroke="#F5F3EE" stroke-width="1.7" stroke-linecap="round"/>
    <line x1="25" y1="71" x2="32" y2="71" stroke="#F5F3EE" stroke-width="1.7" stroke-linecap="round"/>
    <line x1="40" y1="71" x2="46" y2="71" stroke="#F5F3EE" stroke-width="1.7" stroke-linecap="round"/>
    <line x1="53" y1="71" x2="59" y2="71" stroke="#F5F3EE" stroke-width="1.7" stroke-linecap="round"/>
    <line x1="66" y1="71" x2="72" y2="71" stroke="#F5F3EE" stroke-width="1.7" stroke-linecap="round"/>
    <line x1="78" y1="71" x2="84" y2="71" stroke="#F5F3EE" stroke-width="1.7" stroke-linecap="round"/>
    <line x1="13" y1="82" x2="17" y2="82" stroke="#F5F3EE" stroke-width="1.5" stroke-linecap="round"/>
    <line x1="26" y1="82" x2="30" y2="82" stroke="#F5F3EE" stroke-width="1.5" stroke-linecap="round"/>
    <line x1="40" y1="82" x2="44" y2="82" stroke="#F5F3EE" stroke-width="1.5" stroke-linecap="round"/>
    <line x1="53" y1="82" x2="57" y2="82" stroke="#F5F3EE" stroke-width="1.5" stroke-linecap="round"/>
    <line x1="66" y1="82" x2="70" y2="82" stroke="#F5F3EE" stroke-width="1.5" stroke-linecap="round"/>
    <line x1="79" y1="82" x2="83" y2="82" stroke="#F5F3EE" stroke-width="1.5" stroke-linecap="round"/>
    <line x1="15" y1="93" x2="18" y2="93" stroke="#F5F3EE" stroke-width="1.5" stroke-linecap="round"/>
    <line x1="32" y1="93" x2="35" y2="93" stroke="#F5F3EE" stroke-width="1.5" stroke-linecap="round"/>
    <line x1="52" y1="93" x2="55" y2="93" stroke="#F5F3EE" stroke-width="1.5" stroke-linecap="round"/>
    <line x1="72" y1="93" x2="75" y2="93" stroke="#F5F3EE" stroke-width="1.5" stroke-linecap="round"/>
  </g>
  <text x="220" y="137" fill="#F5F3EE" font-size="88" font-weight="800" font-family="Syne, Inter, Helvetica, Arial, sans-serif" letter-spacing="-2">mnesis</text>
</svg>
